# xmcd
#
# Track frame offsets: 
#        150
#        11983
#        22956
#        36597
#        49063
#        65078
#        73865
#        88875
#        106458
#        124444
#        136970
#        146014
#        159601
#        181227
#        197732
#        213600
#        230196
#        249627
#        272411
#        290639
#
# Disc length: 4053 seconds
#
# Revision: 0
# Processed by: cddbd v1.5.2PL0 Copyright (c) Steve Scherf et al.
# Submitted via: ExactAudioCopy v1.2
#
DISCID=470fd314
DTITLE=Various Artist - Classic Delta and Deep South Blues from Smithsonian F
DTITLE=olkways
DYEAR=2018
DGENRE=Blues
TTITLE0=Big Bill Broonzy - C.C. Rider
TTITLE1=Roosevelt Sykes - Woman in Elaine, Arkansas
TTITLE2=Son House - Death Letter Blues
TTITLE3=K.C. Douglas and Richard Riggins - Your Crying Won't Make Me Sta
TTITLE3=y
TTITLE4=Bukka White - Columbus, Mississippi Blues
TTITLE5=Cat-Iron - I'm Goin’ to Walk Your Log
TTITLE6=Clifton Chenier - Why Did You Go Last Night
TTITLE7=Sam Chatmon - I Stand and Wonder
TTITLE8=Johnny Young and Walter Horton - Sleeping with the Devil
TTITLE9=Short Stuff MacOn - Short Stuff's Corinna
TTITLE10=Big Joe Williams - Married Woman Blues
TTITLE11=Little Brother Montgomery - Up the Country Blues
TTITLE12=John Littlejohn - Dream
TTITLE13=Doctor Ross - Good Morning Little Schoolgirl
TTITLE14=Honeyboy Edwards - Catfish Blues
TTITLE15=Memphis Slim - M and O Blues
TTITLE16=Scott Dunbar - Forty-Four
TTITLE17=Son House - Sun Goin' Down
TTITLE18=Fred McDowell - Frisco Line
TTITLE19=Big Bill Broonzy - Diggin' My Potatoes
EXTD=
EXTT0=
EXTT1=
EXTT2=
EXTT3=
EXTT4=
EXTT5=
EXTT6=
EXTT7=
EXTT8=
EXTT9=
EXTT10=
EXTT11=
EXTT12=
EXTT13=
EXTT14=
EXTT15=
EXTT16=
EXTT17=
EXTT18=
EXTT19=
PLAYORDER=
